<svg xmlns="http://www.w3.org/2000/svg" viewBox="0 0 53 51.49"><defs><style>.cls-1{fill:#fff;}</style></defs><title>18764668</title><g id="ELEMENTS"><circle class="cls-1" cx="27.08" cy="25.76" r="17.69"/><path class="cls-1" d="M32.57,19.07a1.22,1.22,0,1,0,1.22,1.21A1.21,1.21,0,0,0,32.57,19.07Z"/><path d="M27.17,20.63a5.11,5.11,0,1,0,5.1,5.11A5.11,5.11,0,0,0,27.17,20.63Zm0,8.38a3.28,3.28,0,1,1,3.27-3.27A3.28,3.28,0,0,1,27.17,29Z"/><path d="M31.22,36.11H22.94a6.24,6.24,0,0,1-6.23-6.23V21.6a6.23,6.23,0,0,1,6.23-6.23h8.28a6.23,6.23,0,0,1,6.23,6.23v8.28A6.24,6.24,0,0,1,31.22,36.11ZM22.94,17.32a4.28,4.28,0,0,0-4.28,4.28v8.28a4.28,4.28,0,0,0,4.28,4.28h8.28a4.28,4.28,0,0,0,4.28-4.28V21.6a4.28,4.28,0,0,0-4.28-4.28Z"/></g></svg>