<svg xmlns="http://www.w3.org/2000/svg" viewBox="0 0 53 51.49"><defs><style>.cls-1{fill:#fff;}</style></defs><title>18764668</title><g id="ELEMENTS"><path class="cls-1" d="M44.19,25.76A17.69,17.69,0,1,0,23.74,43.24V30.87h-4.5V25.76h4.5v-3.9c0-4.43,2.64-6.88,6.68-6.88a27,27,0,0,1,4,.35v4.35H32.15a2.56,2.56,0,0,0-2.89,2.76v3.32h4.91l-.78,5.11H29.26V43.24A17.7,17.7,0,0,0,44.19,25.76Z"/><path d="M33.39,30.87l.78-5.11H29.26V22.44a2.56,2.56,0,0,1,2.89-2.76h2.23V15.33a27,27,0,0,0-4-.35c-4,0-6.68,2.45-6.68,6.88v3.9h-4.5v5.11h4.5V43.24a18.24,18.24,0,0,0,5.52,0V30.87Z"/></g></svg>